<?xml version="1.0" encoding="UTF-8"?>
<svg width="78px" height="20px" viewBox="0 0 78 20" version="1.1" xmlns="http://www.w3.org/2000/svg" xmlns:xlink="http://www.w3.org/1999/xlink">
    <title>button / Store / small / Apple</title>
    <defs>
        <path d="M32.5932904,10.5293615 C34.3905226,10.5293615 35.5703124,11.9466844 35.5703124,14.1343326 C35.5703124,16.3286216 34.3943222,17.7393037 32.6198879,17.7393037 C31.7029991,17.7877471 30.8389881,17.3087743 30.3951957,16.5060241 L30.3619488,16.5060241 L30.3619488,20 L28.9104843,20 L28.9104843,10.6033583 L30.3154031,10.6033583 L30.3154031,11.7778199 L30.3420007,11.7778199 C30.8048648,10.9792768 31.6698804,10.4995802 32.5932904,10.5293615 Z M40.372114,10.5293615 C42.1693461,10.5293615 43.3519857,11.9466844 43.3519857,14.1343326 C43.3519857,16.3286216 42.1759955,17.7393037 40.4006113,17.7393037 C39.4837224,17.7877471 38.6197115,17.3087743 38.1759191,16.5060241 L38.1426722,16.5060241 L38.1426722,20 L36.6959573,20 L36.6959573,10.6033583 L38.1008761,10.6033583 L38.1008761,11.7778199 L38.1208242,11.7778199 C38.5836883,10.9792768 39.448704,10.4995802 40.372114,10.5293615 Z M50.7926408,7.81709515 C52.8425494,7.81709515 54.2474682,8.96499383 54.2949637,10.6356133 L52.8292506,10.6356133 C52.7418588,9.66891187 51.9420335,9.08547576 50.7726927,9.08547576 C49.6033519,9.08547576 48.8035266,9.6755526 48.8035266,10.5350536 C48.8035266,11.2199981 49.3145789,11.622237 50.5646621,11.9315055 L51.6333123,12.1933403 C53.6233765,12.6676786 54.4488494,13.4617209 54.4488494,14.8780951 C54.4488494,16.6900674 53.0040343,17.8246846 50.7061989,17.8246846 C48.5555997,17.8246846 47.1031854,16.7166303 47.0100941,14.9644246 L48.4948054,14.9653733 C48.6021454,15.925434 49.5397078,16.556304 50.8135389,16.556304 C52.0370246,16.556304 52.9166425,15.925434 52.9166425,15.0592923 C52.9166425,14.3079404 52.3856421,13.857319 51.1289094,13.5489991 L49.8721768,13.2463713 C48.0910931,12.8166208 47.2646703,11.9855801 47.2646703,10.6356133 C47.2646703,8.96499383 48.7227841,7.81709515 50.7926408,7.81709515 Z M74.8139975,10.5151314 C76.7698649,10.5151314 78,11.8575088 78,13.9977232 L78,14.493881 L73.0063163,14.493881 L73.0063163,14.5811593 C72.959656,15.1064566 73.1411058,15.6264735 73.5045491,16.0090449 C73.8679925,16.3916163 74.3784328,16.5999036 74.9061389,16.5809695 C75.6104743,16.6468975 76.2745295,16.2429637 76.5390364,15.5877052 L77.914508,15.5896025 C77.5847034,16.9675865 76.28651,17.8905367 74.8747919,17.7506878 C72.8182339,17.7506878 71.5415531,16.374158 71.5415531,14.1665876 C71.5415531,11.9590172 72.8248833,10.5151314 74.8139975,10.5151314 Z M63.0569455,10.5160801 C65.1002047,10.5160801 66.4110823,11.912532 66.4110823,14.1333839 C66.4110823,16.3542358 65.1135034,17.7506878 63.0569455,17.7506878 C61.0003875,17.7506878 59.7037586,16.3618253 59.7037586,14.1333839 C59.7037586,11.9115833 61.0136863,10.5160801 63.0569455,10.5160801 Z M57.5816568,8.93273883 L57.5816568,10.6033583 L58.9305308,10.6033583 L58.9305308,11.751257 L57.5816568,11.751257 L57.5816568,15.640831 C57.5816568,16.245138 57.8504817,16.526895 58.4422764,16.526895 C58.6010679,16.5241406 58.7596049,16.5130574 58.9172321,16.4936913 L58.9172321,17.6321032 C58.6513881,17.6817975 58.3811734,17.7043656 58.1107574,17.6994593 C56.6792411,17.6994593 56.1206932,17.1625083 56.1206932,15.793568 L56.1206932,11.751257 L55.095739,11.751257 L55.095739,10.6033583 L56.123543,10.6033583 L56.123543,8.93273883 L57.5816568,8.93273883 Z M70.7255793,10.5293615 C70.8926826,10.5288065 71.0593225,10.5469445 71.2223829,10.5834361 L71.2223829,11.939095 C71.0113654,11.8748152 70.7912634,11.8453356 70.5707438,11.8518167 C70.1441201,11.8343883 69.7311896,12.0041023 69.4404262,12.3163761 C69.1496629,12.6286499 69.0101311,13.0522688 69.058485,13.475951 L69.058485,17.6643582 L67.6079705,17.6643582 L67.6079705,10.6033583 L68.9919912,10.6033583 L68.9919912,11.8053316 L69.0252381,11.8053316 C69.2180647,11.0316175 69.9278001,10.4990178 70.7255793,10.5293615 Z M24.5076455,7.97837017 L28.0090185,17.6634095 L26.4160173,17.6634095 L25.5288001,15.0460108 L21.8326953,15.0460108 L20.9454782,17.6634095 L19.3800244,17.6634095 L22.8813974,7.97837017 L24.5076455,7.97837017 Z M10.4341657,4.25933302 L10.689286,4.27378807 C11.9854944,4.31444415 13.1866301,4.96310032 13.9303833,6.02409639 C12.756455,6.74476464 12.0340547,8.01582553 12.016312,9.3918983 C12.0171205,10.9501754 12.9517407,12.3566358 14.3891904,12.962717 C14.1125696,13.8586164 13.6957912,14.7051777 13.1543058,15.4710179 C12.4276236,16.556304 11.6657948,17.6159757 10.4575076,17.6358979 C9.28341725,17.6624609 8.900603,16.9452614 7.54127995,16.9452614 C6.18195689,16.9452614 5.76114619,17.6159757 4.6345514,17.6624609 C3.48325891,17.7061 2.60364106,16.5041267 1.85131132,15.4292762 C0.346651834,13.2340385 -0.824588787,9.24295608 0.745614576,6.52784366 C1.48218538,5.20279708 2.86137251,4.36137619 4.37807535,4.31173513 C5.53031775,4.28801821 6.61321662,5.08870126 7.30855168,5.08870126 C7.91696986,5.08870126 9.00466282,4.35510744 10.1809016,4.2676754 L10.4341657,4.25933302 Z M63.0531458,11.7095152 C61.8771557,11.7095152 61.178021,12.6155014 61.178021,14.1333839 C61.178021,15.6512665 61.8771557,16.556304 63.0531458,16.556304 C64.229136,16.556304 64.9282707,15.6635993 64.9282707,14.1333839 C64.9282707,12.6098093 64.229136,11.7095152 63.0531458,11.7095152 Z M32.2104762,11.7626411 C31.1019297,11.7626411 30.3562493,12.7227018 30.3562493,14.1343326 C30.3562493,15.5459634 31.1019297,16.5060241 32.2104762,16.5060241 C33.3389708,16.5060241 34.0789517,15.573475 34.0789517,14.1343326 C34.0789517,12.704677 33.3389708,11.7626411 32.2104762,11.7626411 Z M39.9911995,11.7626411 C38.8826531,11.7626411 38.1369727,12.7227018 38.1369727,14.1343326 C38.1369727,15.5459634 38.8826531,16.5060241 39.9911995,16.5060241 C41.1196942,16.5060241 41.859675,15.573475 41.859675,14.1343326 C41.859675,12.704677 41.1196942,11.7626411 39.9911995,11.7626411 Z M23.7040206,9.59017171 L23.6631744,9.59017171 L22.2155096,13.8383455 L25.1488356,13.8383455 L23.7040206,9.59017171 Z M74.8082981,11.6905417 C74.3302056,11.6864849 73.8703653,11.8736499 73.5313106,12.2103035 C73.1922559,12.5469571 73.0021805,13.0051053 73.0034601,13.4825918 L76.5428361,13.4825918 C76.5691492,13.0101835 76.3969226,12.5482313 76.0676559,12.2080471 C75.7383892,11.8678629 75.2819414,11.6802957 74.8082981,11.6905417 Z M72.7821373,1.47519211 C73.7605459,1.47519211 74.3504408,2.13926572 74.3504408,3.24542264 L74.3504408,3.48733517 L71.8673727,3.48733517 L71.8673727,3.52623091 C71.8454014,3.78680254 71.9345515,4.04453556 72.1128833,4.23600212 C72.2912152,4.42746867 72.5421689,4.53488938 72.8039852,4.5318281 C73.1436644,4.57270163 73.4743673,4.40437856 73.6408571,4.10587231 L74.3048451,4.10682098 C74.111426,4.76837727 73.4711218,5.19642376 72.784987,5.12285362 C72.3160014,5.1353663 71.8652353,4.94126958 71.5523905,4.59210623 C71.2395457,4.24294289 71.0962803,3.77404621 71.1606387,3.30993264 C71.0980956,2.84454317 71.2409002,2.37495601 71.5520314,2.02290816 C71.8631626,1.67086032 72.3119823,1.47101919 72.7821373,1.47519211 Z M56.9052124,1.7210195 C57.4440099,2.05570783 57.7456888,2.66697935 57.6832973,3.29759985 C57.7456888,3.92822035 57.4440099,4.53949187 56.9052124,4.87418019 C56.3664149,5.20886852 55.6840394,5.20886852 55.1452419,4.87418019 C54.6064445,4.53949187 54.3047655,3.92822035 54.367157,3.29759985 C54.3047655,2.66697935 54.6064445,2.05570783 55.1452419,1.7210195 C55.6840394,1.38633118 56.3664149,1.38633118 56.9052124,1.7210195 Z M27.5833507,1.7210195 C28.1221481,2.05570783 28.4238271,2.66697935 28.3614356,3.29759985 C28.4238271,3.92822035 28.1221481,4.53949187 27.5833507,4.87418019 C27.0445532,5.20886852 26.3621777,5.20886852 25.8233802,4.87418019 C25.2845828,4.53949187 24.9829038,3.92822035 25.0452953,3.29759985 C24.9829038,2.66697935 25.2845828,2.05570783 25.8233802,1.7210195 C26.3621777,1.38633118 27.0445532,1.38633118 27.5833507,1.7210195 Z M42.8389626,1.72503195 C43.3770873,2.0585717 43.6793313,2.66797015 43.6189108,3.29759985 C43.6793313,3.92722955 43.3770873,4.536628 42.8389626,4.87016774 C42.3008378,5.20370749 41.6198935,5.20370749 41.0817687,4.87016774 C40.543644,4.536628 40.2414,3.92722955 40.3018205,3.29759985 C40.2414,2.66797015 40.543644,2.0585717 41.0817687,1.72503195 C41.6198935,1.3914922 42.3008378,1.3914922 42.8389626,1.72503195 Z M45.918646,1.47329475 C46.8001637,1.47329475 47.2969673,1.91158334 47.2969673,2.65344844 L47.2969673,5.05265155 L46.6320294,5.05265155 L46.6320294,4.55933972 L46.5769345,4.55933972 C46.350038,4.91977023 45.946469,5.13035372 45.5206332,5.11052082 C45.2223993,5.14159637 44.9249097,5.04531214 44.7016175,4.84544169 C44.4783253,4.64557124 44.3500422,4.3607432 44.3484426,4.06128451 C44.3484426,3.4294659 44.8233983,3.06517408 45.6564705,3.01299687 L46.6063818,2.95797363 L46.6063818,2.65439712 C46.6063818,2.28346457 46.3603547,2.07380704 45.886349,2.07380704 C45.4987852,2.07380704 45.2309102,2.21610853 45.1530175,2.46371312 L44.4814302,2.46371312 C44.5526736,1.86035481 45.1207205,1.47329475 45.918646,1.47329475 Z M51.497475,0.171710464 L51.497475,5.0545489 L50.8325371,5.0545489 L50.8325371,4.50052177 L50.7774422,4.50052177 C50.5521376,4.89378964 50.1270251,5.12981865 49.6736453,5.11336685 C48.777879,5.11241818 48.2126818,4.40565411 48.2126818,3.29665117 C48.2126818,2.18669955 48.7826285,1.4837302 49.6726954,1.4837302 C50.1211513,1.46308123 50.5412061,1.70295895 50.7508447,2.09942131 L50.8030898,2.09942131 L50.8030898,0.171710464 L51.497475,0.171710464 Z M65.5229152,0.668817 L65.5229152,1.55867565 L66.2828442,1.55867565 L66.2828442,2.14211175 L65.5229152,2.14211175 L65.5229152,3.94459729 C65.5229152,4.31268381 65.674901,4.47395883 66.0197188,4.47395883 C66.1082967,4.4736492 66.1967838,4.46826452 66.2847441,4.45783133 L66.2847441,5.03557537 C66.159294,5.05785961 66.032194,5.06960107 65.9047795,5.07067641 C65.1334516,5.07067641 64.8256803,4.7993549 64.8256803,4.12199981 L64.8256803,2.14306043 L64.2671325,2.14306043 L64.2671325,1.55962432 L64.82948,1.55962432 L64.82948,0.668817 L65.5229152,0.668817 Z M37.2442873,1.83062597 C37.483598,2.08554654 37.5924247,2.43610802 37.5394785,2.78151978 L37.5394785,5.05834361 L36.8450933,5.05834361 L36.8450933,2.9551276 C36.8450933,2.39066502 36.5990663,2.10985675 36.0851643,2.10985675 C35.8500701,2.09884455 35.621889,2.19094422 35.4604727,2.36199817 C35.2990564,2.53305212 35.2205125,2.76599102 35.2454427,2.9997154 L35.2454427,5.0545489 L34.5510576,5.0545489 L34.5510576,1.54349682 L35.2159955,1.54349682 L35.2159955,2.10131866 L35.2682406,2.10131866 C35.4478497,1.69199255 35.866981,1.44084064 36.313143,1.47519211 C36.6616961,1.4446693 37.0049767,1.57570541 37.2442873,1.83062597 Z M23.6790758,1.03907518 C24.1037518,1.48690452 24.3049927,2.10130771 24.2274217,2.71321506 C24.3110665,3.3290751 24.1129521,3.94985166 23.6878936,4.40378615 C23.2628352,4.85772064 22.6559034,5.09668028 22.0350264,5.0545489 L20.3517836,5.0545489 L20.3517836,0.4012902 L22.0350264,0.4012902 C22.6510398,0.357181104 23.2543999,0.591245851 23.6790758,1.03907518 Z M61.3017863,1.83465486 C61.5388542,2.08915771 61.6465053,2.43788361 61.5940821,2.78151978 L61.5940821,5.05834361 L60.899697,5.05834361 L60.899697,2.9551276 C60.899697,2.39066502 60.6546198,2.10985675 60.1397679,2.10985675 C59.9046737,2.09884455 59.6764927,2.19094422 59.5150763,2.36199817 C59.35366,2.53305212 59.2751161,2.76599102 59.3000463,2.9997154 L59.3000463,5.0545489 L58.6056612,5.0545489 L58.6151603,1.54349682 L59.2800982,1.54349682 L59.2800982,2.10131866 L59.3323433,2.10131866 C59.5119524,1.69199255 59.9310837,1.44084064 60.3772457,1.47519211 C60.7242145,1.44776357 61.0647184,1.58015201 61.3017863,1.83465486 Z M29.566873,1.54729153 L30.1966642,4.22730291 L30.2489093,4.22730291 L30.9717918,1.54729153 L31.6367297,1.54729153 L32.3596122,4.22730291 L32.4147071,4.22730291 L33.0416485,1.54729153 L33.7360337,1.54729153 L32.7699739,5.05739493 L32.0499412,5.05739493 L31.323259,2.46750783 L31.2662643,2.46750783 L30.5443318,5.05739493 L29.8318983,5.05739493 L28.8629888,1.54729153 L29.566873,1.54729153 Z M39.3376606,0.171710464 L39.3376606,5.0545489 L38.6432754,5.0545489 L38.6432754,0.171710464 L39.3376606,0.171710464 Z M67.9157417,0.171710464 L67.9157417,2.10701072 L67.9708366,2.10701072 C68.1598913,1.6926028 68.5888073,1.44105128 69.0432864,1.47803814 C69.3879581,1.45911111 69.7231132,1.59474606 69.9573646,1.84795929 C70.1916161,2.10117252 70.3005354,2.445558 70.2544233,2.78721184 L70.2544233,5.0545489 L69.5600382,5.0545489 L69.5600382,2.95797363 C69.5600382,2.39730576 69.2988126,2.11270278 68.8077084,2.11270278 C68.566393,2.09304181 68.3286786,2.18067227 68.1580262,2.35220011 C67.9873737,2.52372795 67.9011564,2.76169079 67.9223911,3.00256143 L67.9223911,5.05360023 L67.228006,5.05360023 L67.228006,0.171710464 L67.9157417,0.171710464 Z M46.6092315,3.46836164 L45.7543113,3.52338488 C45.2698566,3.55563988 45.0504271,3.72070961 45.0504271,4.02997818 C45.0504271,4.33924675 45.3249514,4.52993075 45.7020662,4.52993075 C45.9255667,4.55255458 46.1486951,4.4836534 46.3204036,4.33899064 C46.4921121,4.19432788 46.5977074,3.98628236 46.6130311,3.76245138 L46.6092315,3.7615027 L46.6092315,3.46836164 Z M26.7047903,2.09088322 C26.1034965,2.09088322 25.7624783,2.53581254 25.7624783,3.29759985 C25.7624783,4.05938715 26.1015966,4.50621383 26.7047903,4.50621383 C27.307984,4.50621383 27.6480522,4.06128451 27.6480522,3.29759985 C27.6480522,2.53865857 27.3060842,2.09088322 26.7047903,2.09088322 Z M41.9613156,2.09088322 C41.3600217,2.09088322 41.0190036,2.53581254 41.0190036,3.29759985 C41.0190036,4.05938715 41.3581219,4.50621383 41.9613156,4.50621383 C42.5645092,4.50621383 42.9045775,4.06128451 42.9045775,3.29759985 C42.9045775,2.53865857 42.5626094,2.09088322 41.9613156,2.09088322 Z M56.026652,2.09088322 C55.4253582,2.09088322 55.08434,2.53581254 55.08434,3.29759985 C55.08434,4.05938715 55.4234584,4.50621383 56.026652,4.50621383 C56.6298457,4.50621383 56.9699139,4.06128451 56.9699139,3.29759985 C56.9699139,2.53865857 56.6279459,2.09088322 56.026652,2.09088322 Z M49.869327,2.10701072 C49.2851316,2.10701072 48.9298648,2.55858078 48.9298648,3.29665117 C48.9298648,4.0413623 49.281332,4.49008633 49.869327,4.49008633 C50.4573221,4.49008633 50.8192383,4.03567024 50.8192383,3.30044588 C50.8192383,2.56522152 50.4535225,2.10701072 49.869327,2.10701072 Z M22.0996838,1.05873723 L21.075616,1.05967176 L21.075616,4.39711602 L21.954284,4.39711602 C22.3946056,4.42353442 22.8234014,4.25036732 23.1215742,3.92571152 C23.4197469,3.60105572 23.5555412,3.15948713 23.4912404,2.72365051 C23.5509483,2.28960202 23.4132299,1.85162412 23.1157783,1.52958955 C22.8513769,1.2433366 22.4853806,1.07534156 22.0996838,1.05873723 Z M10.7025847,-3.19744231e-14 C10.7811703,1.02531153 10.4564224,2.04082883 9.79731926,2.83085096 C9.15847906,3.62575454 8.18946114,4.08357735 7.16891472,4.07266863 C7.10404044,3.07672552 7.43825028,2.09587624 8.09792796,1.34617209 C8.7657787,0.586334133 9.69576621,0.105686068 10.7025847,-3.19744231e-14 Z M72.774538,2.06526895 C72.532,2.06217965 72.2984909,2.15703893 72.1269767,2.3283302 C71.9554625,2.49962147 71.8604797,2.73282707 71.8635731,2.97504981 L73.6399072,2.97504981 C73.6576554,2.73672975 73.5737904,2.50200861 73.4089848,2.32874496 C73.2441791,2.15548131 73.0137645,2.05979367 72.774538,2.06526895 Z" id="path-1"></path>
    </defs>
    <g id="button" stroke="none" stroke-width="1" fill="none" fill-rule="evenodd">
        <g id="button-/-Store-/-small-/-Apple" transform="translate(-15.000000, -6.000000)">
            <g transform="translate(15.000000, 6.000000)">
                <mask id="mask-2" fill="white">
                    <use xlink:href="#path-1"></use>
                </mask>
                <g id="Combined-Shape" fill-rule="nonzero"></g>
                <g id="Group" mask="url(#mask-2)" fill="#000000" fill-opacity="0.92">
                    <g id="color-/-black-/-tr-/-20" transform="translate(39.000000, 10.000000) scale(1, -1) translate(-39.000000, -10.000000) ">
                        <rect id="Rectangle" x="0" y="0" width="78" height="20"></rect>
                    </g>
                </g>
            </g>
        </g>
    </g>
</svg>