<svg style="pointer-events: none; display: block; width: 100%; height: 100%;" width="48px" height="48px" viewBox="0 0 48 48" version="1.1" xmlns="http://www.w3.org/2000/svg" xmlns:xlink="http://www.w3.org/1999/xlink">
        <g id="icons-48-social-facebook-" stroke="none" stroke-width="1" fill="none" fill-rule="evenodd">
        <rect id="shape" x="0" y="0" width="48" height="48"></rect>
        <path d="M43.8263266,1.71428567 L4.17367343,1.71428567 C2.81539108,1.71428567 1.71428567,2.81539108 1.71428567,4.17367343 L1.71428567,43.8263266 C1.71428567,45.1846089 2.81539108,46.2857143 4.17367343,46.2857143 L25.5361225,46.2857143 L25.5361225,29.0461225 L19.7338775,29.0461225 L19.7338775,22.3046939 L25.5361225,22.3046939 L25.5361225,17.3381633 C25.5361225,11.5836734 29.0540816,8.44775507 34.1877551,8.44775507 C35.9184184,8.43975837 37.6482005,8.52744317 39.3691837,8.71040813 L39.3691837,14.727551 L35.8353061,14.727551 C33.0336735,14.727551 32.492449,16.0487755 32.492449,17.9987755 L32.492449,22.2967347 L39.1781633,22.2967347 L38.3265306,29.0381633 L32.4526531,29.0381633 L32.4526531,46.2857143 L43.8263266,46.2857143 C45.1846089,46.2857143 46.2857143,45.1846089 46.2857143,43.8263266 L46.2857143,4.17367343 C46.2857143,2.81539108 45.1846089,1.71428567 43.8263266,1.71428567 Z" id="social-:-facebook-" fill="currentColor" fill-rule="nonzero"></path>
    </g>
</svg>