<?xml version="1.0" encoding="UTF-8"?>
<svg width="84px" height="20px" viewBox="0 0 84 20" version="1.1" xmlns="http://www.w3.org/2000/svg" xmlns:xlink="http://www.w3.org/1999/xlink">
    <title>button / Store / small / Google</title>
    <defs>
        <linearGradient x1="151.675255%" y1="844.3%" x2="-8.53730697%" y2="760.6%" id="linearGradient-1">
            <stop stop-color="#00A0FF" offset="0%"></stop>
            <stop stop-color="#00A1FF" offset="0.7%"></stop>
            <stop stop-color="#00BEFF" offset="26%"></stop>
            <stop stop-color="#00D2FF" offset="51.2%"></stop>
            <stop stop-color="#00DFFF" offset="76%"></stop>
            <stop stop-color="#00E3FF" offset="100%"></stop>
        </linearGradient>
        <linearGradient x1="215.4%" y1="2212.5%" x2="-82.2%" y2="2212.5%" id="linearGradient-2">
            <stop stop-color="#FFE000" offset="0%"></stop>
            <stop stop-color="#FFBD00" offset="40.9%"></stop>
            <stop stop-color="#FFA500" offset="77.5%"></stop>
            <stop stop-color="#FF9C00" offset="100%"></stop>
        </linearGradient>
        <linearGradient x1="138.4%" y1="1535.10078%" x2="-32.1%" y2="1311.01872%" id="linearGradient-3">
            <stop stop-color="#FF3A44" offset="0%"></stop>
            <stop stop-color="#C31162" offset="100%"></stop>
        </linearGradient>
        <linearGradient x1="7.1%" y1="1652.10565%" x2="83.2%" y2="1552.01836%" id="linearGradient-4">
            <stop stop-color="#32A071" offset="0%"></stop>
            <stop stop-color="#2DA771" offset="6.8%"></stop>
            <stop stop-color="#15CF74" offset="47.6%"></stop>
            <stop stop-color="#06E775" offset="80.1%"></stop>
            <stop stop-color="#00F076" offset="100%"></stop>
        </linearGradient>
        <path d="M26.5331613,11.0809091 C27.1416483,11.0656816 27.7276239,11.3127742 28.1436129,11.76 L28.1436129,11.76 L28.1887742,11.76 L28.1914839,11.2636364 L29.4650323,11.2636364 L29.4650323,16.7345455 C29.4650323,18.9836364 28.1327742,19.9073507 26.5539355,19.9073507 C25.3697541,19.9159234 24.297484,19.2043334 23.8388387,18.1054545 L23.8388387,18.1054545 L25.0130323,17.6190909 C25.2613606,18.2631989 25.8703936,18.6936174 26.5566452,18.71 C27.0243054,18.7378008 27.479595,18.5524543 27.7965516,18.2052394 C28.1135081,17.8580245 28.258526,17.385755 28.1914839,16.9190909 L28.1914839,16.9190909 L28.1914839,16.4818182 L28.1463226,16.4818182 C27.7345852,16.9382904 27.1454837,17.1912636 26.5331613,17.1745455 C24.898105,17.1316396 23.5952386,15.7844139 23.5967492,14.1381818 C23.5901666,12.4863616 24.8927152,11.1301895 26.5331613,11.0809091 Z M56.8192258,11.2636364 L58.4152258,15.1454545 L58.4612903,15.1454545 L60.0049032,11.2636364 L61.5024516,11.2636364 L57.8073548,19.7063636 L56.4037419,19.7063636 L57.772129,16.6881818 L55.3740645,11.2636364 L56.8192258,11.2636364 Z M5.27845161,7.71363636 C6.4940376,7.69408501 7.66709903,8.16367313 8.53729032,9.01818182 L8.53729032,9.01818182 L7.62051613,9.92727273 C6.99032429,9.32247199 6.14909813,8.99137199 5.27845161,9.00545455 C4.37148984,9.00057175 3.50034937,9.36141572 2.85953071,10.0074204 C2.21871204,10.6534251 1.86157968,11.5307941 1.86787097,12.4436364 C1.86157968,13.3564786 2.21871204,14.2338476 2.85953071,14.8798523 C3.50034937,15.525857 4.37148984,15.886701 5.27845161,15.8818182 C6.17492921,15.9183095 7.04572668,15.5758373 7.68012903,14.9372727 C8.09276682,14.4919628 8.34195609,13.9181848 8.38645161,13.3109091 L8.38645161,13.3109091 L5.27845161,13.3109091 L5.27845161,12.0163636 L5.27754839,12.0154545 L9.65277419,12.0154545 C9.7016136,12.2819978 9.72520329,12.5526056 9.72322581,12.8236364 C9.75849372,13.9408395 9.35402364,15.0268658 8.59780645,15.8454545 C7.73017866,16.7447563 6.52282297,17.2291812 5.27845161,17.1772727 C2.65428646,17.1947001 0.503447181,15.0862019 0.451612903,12.4454545 C0.503447181,9.80470716 2.65428646,7.69620903 5.27845161,7.71363636 Z M19.9612903,11.0818182 C20.7747163,11.061584 21.5614675,11.3745156 22.141401,11.9489608 C22.7213346,12.5234059 23.0447799,13.3101642 23.0376774,14.1290909 C23.0422623,14.9471627 22.7179877,15.7323384 22.1385874,16.306084 C21.5591872,16.8798297 20.7739019,17.1933854 19.9612903,17.1754545 C19.1495352,17.1921463 18.3655171,16.8780119 17.7872479,16.3043757 C17.2089787,15.7307396 16.8855234,14.9462734 16.8903226,14.1290909 C16.8830103,13.3110561 17.2056368,12.5250114 17.7844373,11.9506768 C18.3632379,11.3763422 19.1487192,11.0628289 19.9612903,11.0818182 Z M13.2566452,11.0818182 C14.0692895,11.0625728 14.8549188,11.3760028 15.4337757,11.9503934 C16.0126327,12.5247839 16.3351786,13.3109787 16.3276129,14.1290909 C16.3326629,14.9463505 16.0092872,15.730965 15.4309624,16.3046564 C14.8526376,16.8783477 14.0684733,17.1923998 13.2566452,17.1754545 C12.444744,17.1926536 11.6604334,16.8786839 11.0820528,16.3049373 C10.5036723,15.7311906 10.1803764,14.9464277 10.1856774,14.1290909 C10.177858,13.3109012 10.5003233,12.5245563 11.0792367,11.9501097 C11.6581501,11.375663 12.4439275,11.0623163 13.2566452,11.0818182 Z M35.2836129,11.0790891 C36.4740808,11.1077796 37.5201428,11.8814462 37.9029677,13.0163636 L37.9029677,13.0163636 L37.9029677,13.0181818 L38.043871,13.3645455 L33.9477419,15.0509091 C34.2090322,15.6339917 34.7958217,15.9990702 35.4308387,15.9736364 C36.0455795,15.978022 36.6177835,15.6583348 36.9392258,15.1309091 L36.9392258,15.1309091 L37.9833548,15.8227273 C37.41157,16.6754044 36.4528718,17.1824502 35.4308387,17.1727273 C34.6224563,17.1883626 33.8424461,16.8727908 33.2697069,16.2983895 C32.6969677,15.7239881 32.3806456,14.940046 32.3932903,14.1263636 C32.3557196,13.3311736 32.6435667,12.5552278 33.1897327,11.9794038 C33.7358988,11.4035798 34.4926608,11.0781923 35.2836129,11.0790891 Z M52.5433548,11.0645455 C53.2418063,10.984999 53.9406847,11.2101502 54.4634273,11.6831175 C54.9861698,12.1560847 55.2827799,12.831632 55.2783721,13.5390909 L55.2783721,13.5390909 L55.2783721,16.9736364 L53.9812903,16.9736364 L53.9812903,16.2818182 L53.9352258,16.2818182 C53.5626997,16.8648651 52.9066101,17.2002534 52.2190968,17.1590909 C51.661073,17.2043006 51.1086604,17.0200142 50.6879373,16.6482919 C50.2672142,16.2765696 50.0140852,15.7491343 49.9863226,15.1863636 C49.9863226,13.8745455 51.2941935,13.1718182 52.5776774,13.1718182 C53.0666942,13.1696346 53.5487333,13.2885854 53.9812903,13.5181818 L53.9812903,13.5181818 L53.9812903,13.4272727 C53.9045302,12.7172776 53.2727354,12.2027935 52.5668387,12.2754545 C52.0646774,12.2316129 51.5839704,12.4895597 51.3402581,12.9336364 L51.3402581,12.9336364 L50.1489032,12.4363636 C50.6070123,11.5425724 51.5459357,11.0050052 52.5433548,11.0654545 L52.5433548,11.0654545 Z M49.2483871,8.03727273 L49.2483871,16.9909091 L47.9016774,16.9909091 L47.9016774,8.03727273 L49.2483871,8.03727273 Z M44.2074839,8.03636364 C44.9669376,8.00543885 45.7070277,8.28213542 46.2622553,8.80457851 C46.8174829,9.3270216 47.1415308,10.0516288 47.1619355,10.8163636 C47.1422548,11.581424 46.8184587,12.3065588 46.2630936,12.8293022 C45.7077284,13.3520456 44.9672219,13.628697 44.2074839,13.5972727 L44.2074839,13.5972727 L42.3296774,13.5972727 L42.3296774,16.99 L40.9865806,16.99 L40.9865806,8.03636364 Z M31.7411613,8.03545455 L31.7411613,16.9890909 L30.3944516,16.9890909 L30.3971613,8.03545455 L31.7411613,8.03545455 Z M26.6514839,12.2818182 C26.1790494,12.2956394 25.7320523,12.500377 25.4113682,12.8498268 C25.0906841,13.1992767 24.9233384,13.6639892 24.9470968,14.1390909 C24.9258274,14.6115208 25.0946445,15.0726384 25.4153924,15.4182229 C25.7361403,15.7638074 26.1817421,15.9646853 26.6514839,15.9754545 C27.1134459,15.9589192 27.5488209,15.7538396 27.857393,15.4074214 C28.1659652,15.0610033 28.3211497,14.6030921 28.2872258,14.1390909 C28.3226549,13.6726598 28.1686037,13.2117112 27.8603004,12.8616539 C27.551997,12.5115965 27.1158093,12.3023694 26.6514839,12.2818182 Z M13.2566452,12.2818182 C12.7811694,12.2877011 12.3284632,12.4877261 12.0023359,12.8360258 C11.6762086,13.1843255 11.5046384,13.6510194 11.5269677,14.1290909 L11.527439,14.287598 C11.5473963,14.7083108 11.7158142,15.1101584 12.005249,15.4191188 C12.3308631,15.7666993 12.7820746,15.9672953 13.2566452,15.9754545 C13.73083,15.9670762 14.1815513,15.7662869 14.5065432,15.4186445 C14.8315351,15.0710022 15.0032438,14.6059807 14.9827097,14.1290909 C15.0055365,13.6515062 14.8346264,13.1850769 14.5091752,12.8367717 C14.1837239,12.4884666 13.7316555,12.2881704 13.2566452,12.2818182 Z M19.9612903,12.2818182 C19.48628,12.2881704 19.0342115,12.4884666 18.7087603,12.8367717 C18.3833091,13.1850769 18.212399,13.6515062 18.2352258,14.1290909 L18.2354478,14.2874699 C18.2547416,14.7078697 18.4225106,15.1096291 18.7113923,15.4186445 C19.0363841,15.7662869 19.4871055,15.9670762 19.9612903,15.9754545 C20.4358609,15.9672953 20.8870723,15.7666993 21.2126865,15.4191188 C21.5383006,15.0715383 21.7107528,14.6063975 21.6909677,14.1290909 C21.7130403,13.6510875 21.5413838,13.1845409 21.215311,12.8362995 C20.8892383,12.4880581 20.4366834,12.2879552 19.9612903,12.2818182 Z M52.7547097,14.2572727 C52.0935484,14.2572727 51.3303226,14.5236364 51.3303226,15.2163636 C51.3303226,15.7581818 51.9427097,15.9745455 52.3816774,15.9745455 L52.3816774,15.9745455 C53.1902077,15.9667305 53.8721572,15.3644068 53.9821935,14.5581818 C53.6065216,14.3507743 53.183066,14.2469671 52.7547097,14.2572727 Z M35.4518172,12.2554609 L35.3233548,12.2572727 C34.8758424,12.2755406 34.4543738,12.4739597 34.1535959,12.8079723 C33.8528181,13.1419849 33.69794,13.5835963 33.7237419,14.0336364 L33.7237419,14.0336364 L36.4632258,12.9036364 C36.2451414,12.4788574 35.7973212,12.2249211 35.3233548,12.2572727 Z M44.2427097,9.28181818 L42.3296774,9.28181818 L42.3296774,12.3518182 L44.2418065,12.3518182 C45.0959935,12.3600036 45.7982119,11.6759071 45.8179355,10.8163636 C45.8025992,9.95539726 45.0981664,9.26915648 44.2427097,9.28181818 L44.2427097,9.28181818 Z M2.91832258,0.417272727 C3.22306607,0.417746479 3.52463726,0.479565104 3.80529032,0.599090909 C4.06483379,0.702535709 4.29613208,0.866773625 4.48,1.07818182 L4.10335484,1.45636364 C3.80623915,1.11381758 3.36953637,0.927214725 2.91832258,0.95 C2.47771974,0.944519031 2.05302687,1.11556469 1.73780645,1.42545455 C1.07667272,2.11821209 1.07667272,3.212697 1.73780645,3.90545455 C2.05395561,4.21390572 2.47803345,4.38470367 2.91832258,4.38090909 C3.36832447,4.39323994 3.80383675,4.22020224 4.12412903,3.90181818 C4.34543714,3.66517308 4.47382554,3.35568617 4.48541935,3.03090909 L2.91922581,3.03090909 L2.91922581,2.51363636 L5.01109677,2.51363636 C5.03362052,2.61998667 5.04422441,2.72854374 5.04270968,2.83727273 C5.06725875,3.36899075 4.87396912,3.88755769 4.508,4.27181818 C4.09064306,4.69957214 3.51356336,4.93058287 2.91832258,4.90818182 C2.32404273,4.91871823 1.75086671,4.68651599 1.32954839,4.26454545 C0.457032173,3.3786296 0.457032173,1.95046131 1.32954839,1.06454545 C1.74950237,0.640083062 2.32326442,0.406330192 2.91832258,0.417272727 Z M23.8957419,1.06818182 C24.7440683,1.9569441 24.7440683,3.36123772 23.8957419,4.25 L23.9029677,4.25727273 C23.0228708,5.1253479 21.6145485,5.1253479 20.7344516,4.25727273 C19.886149,3.36568471 19.886149,1.95976984 20.7344516,1.06818182 C21.6124853,0.201948009 23.0177082,0.201948009 23.8957419,1.06818182 Z M8.36116129,0.515454545 L8.36116129,1.04272727 L6.39664516,1.04272727 L6.39664516,2.40636364 L8.16787097,2.40636364 L8.16787097,2.92363636 L6.39664516,2.92363636 L6.39664516,4.28727273 L8.36116129,4.28727273 L8.36116129,4.81454545 L5.84025806,4.81454545 L5.84025806,0.515454545 L8.36116129,0.515454545 Z M25.9939355,0.515454545 L28.0930323,3.85545455 L28.1174194,3.85545455 L28.0930323,3.03 L28.0930323,0.515454545 L28.6485161,0.515454545 L28.6485161,4.81 L28.0686452,4.81 L25.8701935,1.30545455 L25.8458065,1.30545455 L25.8701935,2.13454545 L25.8701935,4.81 L25.3192258,4.81 L25.3192258,0.515454545 L25.9939355,0.515454545 Z M18.284,0.515454545 L18.284,1.04272727 L17.0727742,1.04272727 L17.0727742,4.81 L16.5209032,4.81 L16.5209032,1.04272727 L15.3123871,1.04272727 L15.3123871,0.515454545 L18.284,0.515454545 Z M14.6096774,0.515454545 L14.6096774,4.81 L14.0541935,4.81 L14.0541935,0.515454545 L14.6096774,0.515454545 Z M11.9099355,0.515454545 L11.9099355,1.04272727 L10.7032258,1.04272727 L10.7032258,4.81 L10.1468387,4.81 L10.1468387,1.04272727 L8.94193548,1.04272727 L8.94193548,0.515454545 L11.9099355,0.515454545 Z M21.1463226,1.42454545 C20.5059674,2.12139651 20.5059674,3.19678531 21.1463226,3.89363636 C21.7977563,4.53914197 22.843276,4.53914197 23.4947097,3.89363636 C24.1350648,3.19678531 24.1350648,2.12139651 23.4947097,1.42454545 C22.843276,0.779039849 21.7977563,0.779039849 21.1463226,1.42454545 Z" id="path-5"></path>
    </defs>
    <g id="button" stroke="none" stroke-width="1" fill="none" fill-rule="evenodd">
        <g id="button-/-Store-/-small-/-Google" transform="translate(-12.000000, -6.000000)">
            <g transform="translate(12.000000, 6.000000)">
                <g id="Group-2" fill-rule="nonzero">
                    <path d="M0.336918927,0.292723473 C0.0998611767,0.572103198 -0.0199799694,0.933309207 0.00272537906,1.2999962 L0.00272537906,17.1409053 C-0.0199799694,17.5075923 0.0998611767,17.8687983 0.336918927,18.148178 L0.389306024,18.1963598 L9.31317699,9.32272347 L9.31317699,9.11363256 L0.389306024,0.2399962 L0.336918927,0.292723473 Z" id="path64" fill="url(#linearGradient-1)"></path>
                    <path d="M12.2838867,12.2827235 L9.31227377,9.32363256 L9.31227377,9.11454165 L12.2874996,6.15545075 L12.3543383,6.19363256 L15.8769189,8.18726893 C16.8822093,8.75272347 16.8822093,9.68454165 15.8769189,10.2536326 L12.3543383,12.2445417 L12.2838867,12.2827235 L12.2838867,12.2827235 Z" id="path78" fill="url(#linearGradient-2)"></path>
                    <path d="M12.3543383,12.2445417 L9.31317699,9.21908711 L0.336918927,18.148178 C0.762654427,18.5189123 1.38896366,18.5364016 1.83446731,18.1899962 L12.3543383,12.2436326" id="path88" fill="url(#linearGradient-3)"></path>
                    <path d="M12.3543383,6.19363256 L1.83446731,0.245450745 C1.38754545,-0.0981523692 0.762457103,-0.0791792885 0.336918927,0.290905291 L9.31227377,9.21726893 L12.3543383,6.19363256 Z" id="path104" fill="url(#linearGradient-4)"></path>
                </g>
                <g id="Group-3" transform="translate(21.677419, 0.000000)">
                    <mask id="mask-6" fill="white">
                        <use xlink:href="#path-5"></use>
                    </mask>
                    <g id="Combined-Shape" fill-rule="nonzero"></g>
                    <g id="Group" mask="url(#mask-6)" fill="#000000" fill-opacity="0.92">
                        <g id="color-/-black-/-tr-/-20">
                            <rect id="Rectangle" x="0" y="0" width="62.3225806" height="20"></rect>
                        </g>
                    </g>
                </g>
            </g>
        </g>
    </g>
</svg>