<svg style="pointer-events: none; display: block; width: 100%; height: 100%;" width="48px" height="48px" viewBox="0 0 48 48" version="1.1" xmlns="http://www.w3.org/2000/svg" xmlns:xlink="http://www.w3.org/1999/xlink">
        <g id="icons-48-social-instagram-" stroke="none" stroke-width="1" fill="none" fill-rule="evenodd">
        <rect id="shape" x="0" y="0" width="48" height="48"></rect>
        <path d="M27.5266774,1.71570054 C30.5045263,1.7202024 31.3726265,1.73902835 33.1530612,1.81775506 C35.003064,1.85036302 36.8337365,2.20034452 38.5653062,2.85244894 C41.586696,3.99615837 43.9720049,6.3814673 45.1157143,9.40285711 C45.7678187,11.1344268 46.1178002,12.9650992 46.1504082,14.815102 C46.2621828,16.7744454 46.2816219,17.6366251 46.2850026,21.2872914 L46.2850026,26.7127086 C46.2816219,30.3633749 46.2621828,31.2255546 46.1504082,33.184898 C46.1178002,35.0349008 45.7678187,36.8655732 45.1157143,38.5971429 C43.959446,41.5920998 41.5920998,43.959446 38.5971429,45.1157143 C36.8655732,45.7678187 35.0349008,46.1178002 33.184898,46.1504082 C31.2255546,46.2621828 30.3633749,46.2816219 26.7127086,46.2850026 L21.2874589,46.2851701 C17.637588,46.2825848 16.7799822,46.2677197 14.8469388,46.1822449 C12.996936,46.149637 11.1662635,45.7996555 9.43469385,45.1475511 C6.41330403,44.0038416 4.0279951,41.6185327 2.88428567,38.5971429 C2.23218125,36.8655732 1.88219976,35.0349008 1.84959179,33.184898 C1.74370005,31.3286779 1.7206801,30.4571699 1.71567576,27.266523 L1.71570054,20.4733226 C1.7202024,17.4954737 1.73902835,16.6273735 1.81775506,14.8469388 C1.85036302,12.996936 2.20034452,11.1662635 2.85244894,9.43469385 C3.99615837,6.41330403 6.3814673,4.0279951 9.40285711,2.88428567 C11.1344268,2.23218125 12.9650992,1.88219976 14.815102,1.84959179 C16.6713221,1.74370005 17.5428301,1.7206801 20.733477,1.71567576 Z M25.4679214,5.69396696 L22.5320731,5.69397255 C17.908933,5.6949466 17.1367075,5.70590473 14.9902041,5.82918364 C13.5749888,5.8533745 12.1746736,6.12266589 10.8514285,6.62510201 C9.88258619,6.98295627 9.00667156,7.55420495 8.2885714,8.29653058 C7.54624577,9.01463074 6.97499709,9.89054538 6.61714282,10.8593877 C6.11470671,12.1826328 5.84541532,13.582948 5.82122445,14.9981632 C5.70519724,17.137415 5.69488371,17.9089959 5.69396696,22.5320786 L5.69397255,25.4670675 C5.6949466,30.084621 5.70590473,30.827034 5.82918364,33.0097959 C5.8533745,34.4250112 6.12266589,35.8253264 6.62510201,37.1485715 C6.98295627,38.1174138 7.55420495,38.9933284 8.29653058,39.7114286 C9.01463074,40.4537542 9.89054538,41.0250029 10.8593877,41.3828572 C12.1826328,41.8852933 13.582948,42.1545847 14.9981632,42.1787755 C17.137415,42.2948028 17.9089959,42.3051163 22.5320786,42.306033 L25.4670619,42.3060275 C30.0845581,42.3050534 30.8263265,42.2940953 33.0018368,42.1708164 C34.417052,42.1466255 35.8173672,41.8773341 37.1406123,41.374898 C39.0826885,40.6186538 40.6186538,39.0826885 41.374898,37.1406123 C41.8773341,35.8173672 42.1466255,34.417052 42.1708164,33.0018368 L42.1708164,33.0018368 L42.1469388,33.0018368 C42.2583674,30.6538776 42.3061225,29.9534694 42.3061225,24 L42.3060275,22.5320731 C42.3050534,17.908933 42.2940953,17.1367075 42.1708164,14.9902041 C42.1466255,13.5749888 41.8773341,12.1746736 41.374898,10.8514285 C41.0170437,9.88258619 40.4457951,9.00667156 39.7034694,8.2885714 C38.9853693,7.54624577 38.1094546,6.97499709 37.1406123,6.61714282 C35.8173672,6.11470671 34.417052,5.84541532 33.0018368,5.82122445 C30.862585,5.70519724 30.0910041,5.69488371 25.4679214,5.69396696 Z M24,12.5546935 C27.0357754,12.553932 29.9474915,13.7592736 32.0944898,15.9055102 C35.9518707,19.7637465 36.5471288,25.8093376 33.5163024,30.3457973 C30.485476,34.882257 24.6724649,36.6464585 19.631548,34.5597072 C14.590631,32.4729559 11.7253953,27.1162845 12.7877463,21.7649496 C13.8500974,16.4136147 18.5442355,12.5576359 24,12.5546935 Z M26.8417759,17.139346 C24.0669004,15.9899549 20.8728805,16.625285 18.7490828,18.7490828 C16.625285,20.8728805 15.9899549,24.0669004 17.139346,26.8417759 C18.2887371,29.6166515 20.9964964,31.4259227 24,31.4259227 C25.9701236,31.4280334 27.8601641,30.6463413 29.2532527,29.2532527 C30.6463413,27.8601641 31.4280334,25.9701236 31.4259227,24 C31.4259227,20.9964964 29.6166515,18.2887371 26.8417759,17.139346 Z M35.9387755,9.42672794 C36.6511775,9.42832439 37.3333171,9.71493767 37.8330613,10.222653 C38.7243831,11.128192 38.8528898,12.5368767 38.1401318,13.5887473 C37.4273739,14.6406178 36.0713977,15.0434021 34.8999862,14.5512124 C33.7285748,14.0590227 33.0672156,12.8086185 33.3196488,11.5633342 C33.5720819,10.3180499 34.6681664,9.42389931 35.9387755,9.42672794 Z" id="Combined-Shape" fill="currentColor" fill-rule="nonzero"></path>
    </g>
</svg>