<svg style="pointer-events: none; display: block; width: 100%; height: 100%;" width="48px" height="48px" viewBox="0 0 48 48" version="1.1" xmlns="http://www.w3.org/2000/svg" xmlns:xlink="http://www.w3.org/1999/xlink">
        <g id="icons-48-social-linkedin-" stroke="none" stroke-width="1" fill="none" fill-rule="evenodd">
        <rect id="shape" x="0" y="0" width="48" height="48"></rect>
        <path d="M39.6955102,39.6955102 L33.0814286,39.6955102 L33.0814286,29.3485714 C33.0814286,26.8812245 33.0814286,23.7134694 29.6510204,23.7134694 C26.2206122,23.7134694 25.6714286,26.3957143 25.6714286,29.1734694 L25.6714286,39.6955102 L19.0653061,39.6955102 L19.0653061,18.4285714 L25.4326531,18.4285714 L25.4326531,21.3416326 L25.5281633,21.3416326 C26.8190483,19.1287393 29.2240034,17.806932 31.7840816,17.9032653 C38.4777551,17.9032653 39.7432653,22.3046939 39.7432653,28.0353061 L39.6955102,39.6955102 Z M11.6314285,15.5155185 C10.0783354,15.518729 8.67652817,14.5852199 8.08069729,13.1509626 C7.4848664,11.7167052 7.81258006,10.0647044 8.91078509,8.96649938 C10.0089901,7.86829434 11.6609909,7.54058069 13.0952483,8.13641157 C14.5295056,8.73224245 15.4630148,10.1340497 15.4598042,11.6871428 C15.4510738,13.7978684 13.7421541,15.5067881 11.6314285,15.5155185 L11.6314285,15.5155185 Z M14.9344898,39.6955102 L8.32040813,39.6955102 L8.32040813,18.4285714 L14.9344898,18.4285714 L14.9344898,39.6955102 Z M42.9906123,1.71411743 L5.00142853,1.71411743 C3.21881648,1.69642125 1.75342431,3.11568727 1.71428567,4.89795915 L1.71428567,43.1020409 C1.75342431,44.8843127 3.21881648,46.3035788 5.00142853,46.2858826 L42.9906123,46.2858826 C44.7745902,46.3036484 46.2422906,44.8855804 46.2857143,43.1020409 L46.2857143,4.89795915 C46.2422906,3.11441963 44.7745902,1.69635159 42.9906123,1.71411743 Z" id="social-:-linkedin-" fill="currentColor" fill-rule="nonzero"></path>
    </g>
</svg>