<?xml version="1.0" encoding="UTF-8"?>
<svg width="43px" height="36px" viewBox="0 0 43 36" version="1.1" xmlns="http://www.w3.org/2000/svg" xmlns:xlink="http://www.w3.org/1999/xlink">
    <title>retail / icon_fill</title>
    <defs>
        <path d="M41.2688312,6.92307692 C40.9337662,6.48 36.5779221,-5.32907052e-14 28.9272727,-5.32907052e-14 L12.6766234,-5.32907052e-14 C7.37142857,-5.32907052e-14 3.07142857,4.26461538 3.07142857,9.52615385 L3.07142857,27.3046154 C3.07142857,27.8584615 2.23376623,27.5261538 2.23376623,27.5261538 L2.23376623,27.5261538 C2.06623377,27.4707692 1.84285714,27.4153846 1.56363636,27.4153846 C0.67012987,27.4153846 -1.77635684e-14,28.1353846 -1.77635684e-14,28.9661538 C-1.77635684e-14,30.7938462 2.9038961,31.6246154 4.07662338,31.6246154 C4.41168831,31.6246154 4.8025974,31.5692308 5.08181818,31.5692308 C6.81298701,33.7846154 9.54935065,35.2246154 12.6207792,35.2246154 L28.9272727,35.2246154 C34.2324675,35.2246154 38.5324675,30.96 38.5324675,25.6984615 L38.5324675,15.9507692 C38.5324675,15.9507692 40.5428571,13.4584615 40.7103896,13.1815385 L40.7103896,13.1815385 C40.7103896,13.1815385 42.3298701,11.0215385 42.7207792,10.1907692 C43.1116883,9.47076923 42.7766234,9.08307692 41.2688312,6.92307692 Z" id="path-1"></path>
    </defs>
    <g id="retail-/-icon_fill" stroke="none" stroke-width="1" fill="none" fill-rule="evenodd">
        <g id="Group-2">
            <mask id="mask-2" fill="white">
                <use xlink:href="#path-1"></use>
            </mask>
            <use id="Path" fill="#FFFFFF" fill-rule="nonzero" xlink:href="#path-1"></use>
            <path d="M31.4909091,24.7138462 C31.825974,24.8246154 32.2168831,24.88 32.6636364,24.88 C34.3948052,24.88 35.2324675,24.2153846 35.2324675,23.3846154 C35.2324675,22.4430769 33.9480519,22.4430769 33.7805195,21.6123077 C33.612987,20.56 33.7246753,15.9076923 35.5116883,13.36 L36.7402597,13.9138462 C36.7402597,13.9138462 37.0753247,14.08 37.5220779,14.08 C37.8012987,14.08 38.0805195,13.9692308 38.3597403,13.6369231 C39.0298701,12.9169231 40.9285714,10.5353846 41.5428571,9.31692308 C41.7103896,8.98461538 39.1415584,5.82769231 37.6896104,4.72 C36.6844156,3.94461538 35.4558442,3.50153846 34.1155844,3.50153846 C31.6025974,3.50153846 29.4805195,5.10769231 28.6987013,7.26769231 C27.0792208,8.37538462 23.8961039,10.2030769 20.6012987,11.0892308 C16.6922078,12.0861538 12.6714286,11.1446154 9.87922078,11.3107692 C6.36103896,11.4769231 4.23896104,14.08 4.35064935,17.0153846 C4.46233766,20.0615385 6.52857143,22.7753846 6.52857143,25.6 C6.52857143,27.8153846 4.68571429,28.8123077 3.45714286,28.8123077 C1.94935065,28.8123077 1.83766234,28.2030769 1.39090909,28.2030769 C1.22337662,28.2030769 1,28.3692308 1,28.5907692 C1,29.3661538 2.84285714,30.0307692 3.9038961,30.0307692 C6.6961039,30.0307692 7.86883117,28.0369231 7.86883117,28.0369231 C7.86883117,28.0369231 8.59480519,30.0861538 11.387013,30.0861538 C13.6207792,30.0861538 14.5701299,29.0338462 14.5701299,28.1476923 C14.5701299,27.4276923 14.1233766,27.1507692 13.8441558,26.7076923 C13.3974026,26.0984615 13.3974026,25.3784615 13.3974026,25.3784615 C13.3974026,25.3784615 13.9,25.4338462 14.625974,25.4338462 C16.2454545,25.4338462 16.7480519,24.7692308 16.7480519,24.16 C16.7480519,23.3292308 15.7987013,23.3846154 15.7987013,22.0553846 C15.7987013,21.0584615 16.3571429,20.7261538 16.8597403,20.7261538 C17.4181818,20.7261538 19.4844156,20.9476923 21.9415584,21.1692308 C22.7792208,21.2246154 24.8454545,22.0553846 24.8454545,25.2123077 L24.8454545,26.3753846 C24.8454545,28.3138462 25.6272727,30.7507692 29.0896104,30.7507692 C31.4350649,30.7507692 32.7753247,29.4215385 32.7753247,28.48 C32.7753247,27.8707692 32.2168831,27.5938462 31.9376623,27.2061538 C31.1,26.2646154 31.4909091,24.7138462 31.4909091,24.7138462" id="Mask" fill="#FF600A" fill-rule="nonzero" mask="url(#mask-2)"></path>
            <path d="M30.5974026,23.4953846 L30.5960102,23.524926 C30.5680626,23.9192608 30.145414,27.0261538 31.7142857,28.3138462 C30.8803463,29.7095385 28.3924271,29.4648615 28.064411,29.4260349 L28.0285714,29.4215385 C28.7545455,29.2 29.7038961,28.8123077 30.2064935,28.3138462 C29.3688312,25.2123077 30.5974026,23.4953846 30.5974026,23.4953846 L30.5974026,23.4953846 Z M15.0727273,19.0646154 C15.7428571,19.0646154 16.412987,19.1753846 16.9714286,19.4523077 C16.9714286,19.4523077 13.3974026,19.0092308 12.1688312,22.1661538 C11.2632503,24.4563825 12.1565936,26.7102006 12.5270284,27.4810235 L12.5934553,27.6149862 C12.6418544,27.7094297 12.6714286,27.76 12.6714286,27.76 C11.6103896,26.9292308 10.8844156,25.6 10.7727273,24.0492308 C10.7168831,21.3907692 12.6155844,19.1753846 15.0727273,19.0646154 Z M15.7428571,22.8861538 C15.7428571,22.8861538 15.9910534,23.2061538 16.1896104,23.4523077 L16.3245671,23.6169231 C16.3633478,23.6630769 16.3943723,23.6984615 16.412987,23.7169231 L16.412987,23.7169231 C16.3575003,23.7945502 15.6691429,24.7005538 13.9,24.3815385 C13.9,24.3815385 15.9662338,23.9938462 15.7428571,22.8861538 Z M33.8363636,21.9446154 L33.9824519,22.0988062 C34.1915325,22.2902154 34.4506494,22.432 34.674026,22.6092308 C34.674026,22.9969231 33.8363636,23.9384615 32.3285714,23.6615385 C32.3285714,23.6615385 34.5064935,23.1630769 33.8363636,21.9446154 L33.8363636,21.9446154 Z M18.2558442,12.64 C19.1277741,16.4773497 21.9141717,19.1543746 24.1240545,20.9284167 C24.8393765,21.3940355 25.5963116,21.7946824 26.3532468,22.1107692 C25.3223908,21.70182 24.3391077,21.1985083 23.4033973,20.600834 C21.0590984,19.2202181 18.6448495,16.6081818 15.9662338,15.1323077 C12.7831169,13.36 9.6,13.1384615 7.86883117,14.6338462 C6.36103896,15.9630769 6.47272727,17.8461538 6.75194805,18.9538462 C6.08181818,18.2892308 5.63506494,17.2923077 5.63506494,16.24 C5.63506494,14.1353846 7.36623377,12.5292308 9.48831169,12.4184615 C11.6662338,12.3076923 15.687013,12.9723077 18.2558442,12.64 Z M31.8818182,21.2246154 C32.1285532,21.2246154 32.3285714,21.4229877 32.3285714,21.6676923 C32.3285714,21.9123969 32.1285532,22.1107692 31.8818182,22.1107692 C31.6350832,22.1107692 31.4350649,21.9123969 31.4350649,21.6676923 C31.4350649,21.4229877 31.6350832,21.2246154 31.8818182,21.2246154 Z M29.2012987,20.7815385 C29.4480337,20.7815385 29.6480519,20.9799108 29.6480519,21.2246154 C29.6480519,21.46932 29.4480337,21.6676923 29.2012987,21.6676923 C28.9545637,21.6676923 28.7545455,21.46932 28.7545455,21.2246154 C28.7545455,20.9799108 28.9545637,20.7815385 29.2012987,20.7815385 Z M26.6883117,19.8953846 C26.9350467,19.8953846 27.1350649,20.0937569 27.1350649,20.3384615 C27.1350649,20.5831662 26.9350467,20.7815385 26.6883117,20.7815385 C26.4415767,20.7815385 26.2415584,20.5831662 26.2415584,20.3384615 C26.2415584,20.0937569 26.4415767,19.8953846 26.6883117,19.8953846 Z M22.3883117,11.8092308 C23.2818182,13.9692308 23.7285714,14.8553846 25.4038961,16.5723077 C27.6376623,18.9538462 30.9324675,19.7846154 32.7194805,19.84 C31.2116883,19.9507692 27.4142857,19.2861538 24.7896104,16.5723077 C23.3376623,15.0769231 22.2207792,13.4707692 21.774026,12.0307692 C21.6623377,11.8646154 21.774026,11.6430769 21.9415584,11.5876923 C22.1090909,11.5323077 22.2766234,11.6430769 22.3883117,11.8092308 Z M24.4545455,18.4 C24.7012805,18.4 24.9012987,18.5983723 24.9012987,18.8430769 C24.9012987,19.0877816 24.7012805,19.2861538 24.4545455,19.2861538 C24.2078104,19.2861538 24.0077922,19.0877816 24.0077922,18.8430769 C24.0077922,18.5983723 24.2078104,18.4 24.4545455,18.4 Z M32.2168831,17.6246154 C32.4636181,17.6246154 32.6636364,17.8229877 32.6636364,18.0676923 C32.6636364,18.3123969 32.4636181,18.5107692 32.2168831,18.5107692 C31.9701481,18.5107692 31.7701299,18.3123969 31.7701299,18.0676923 C31.7701299,17.8229877 31.9701481,17.6246154 32.2168831,17.6246154 Z M29.5922078,16.7938462 C29.8389428,16.7938462 30.038961,16.9922184 30.038961,17.2369231 C30.038961,17.4816277 29.8389428,17.68 29.5922078,17.68 C29.3454728,17.68 29.1454545,17.4816277 29.1454545,17.2369231 C29.1454545,16.9922184 29.3454728,16.7938462 29.5922078,16.7938462 Z M22.6675325,16.6830769 C22.9142675,16.6830769 23.1142857,16.8814492 23.1142857,17.1261538 C23.1142857,17.3708585 22.9142675,17.5692308 22.6675325,17.5692308 C22.4207975,17.5692308 22.2207792,17.3708585 22.2207792,17.1261538 C22.2207792,16.8814492 22.4207975,16.6830769 22.6675325,16.6830769 Z M27.2467532,15.3538462 C27.4934883,15.3538462 27.6935065,15.5522184 27.6935065,15.7969231 C27.6935065,16.0416277 27.4934883,16.24 27.2467532,16.24 C27.0000182,16.24 26.8,16.0416277 26.8,15.7969231 C26.8,15.5522184 27.0000182,15.3538462 27.2467532,15.3538462 Z M25.8506494,10.1476923 C26.3532468,11.2553846 27.0233766,12.4184615 28.1402597,13.5261538 C29.7597403,15.0769231 31.6584416,15.9630769 33.3896104,16.1846154 C31.3233766,16.0738462 29.0337662,15.0215385 27.1909091,13.1938462 C26.3532468,12.3076923 25.6831169,11.4215385 25.2922078,10.48 C25.1805195,10.3138462 25.2363636,10.0923077 25.4038961,10.0369231 C25.5714286,9.92615385 25.7948052,9.98153846 25.8506494,10.1476923 Z M21.2155844,14.5784615 C21.4623194,14.5784615 21.6623377,14.7768338 21.6623377,15.0215385 C21.6623377,15.2662431 21.4623194,15.4646154 21.2155844,15.4646154 C20.9688494,15.4646154 20.7688312,15.2662431 20.7688312,15.0215385 C20.7688312,14.7768338 20.9688494,14.5784615 21.2155844,14.5784615 Z M33.3337662,14.08 C33.5805012,14.08 33.7805195,14.2783723 33.7805195,14.5230769 C33.7805195,14.7677816 33.5805012,14.9661538 33.3337662,14.9661538 C33.0870312,14.9661538 32.887013,14.7677816 32.887013,14.5230769 C32.887013,14.2783723 33.0870312,14.08 33.3337662,14.08 Z M25.4597403,13.36 C25.7064753,13.36 25.9064935,13.5583723 25.9064935,13.8030769 C25.9064935,14.0477816 25.7064753,14.2461538 25.4597403,14.2461538 C25.2130053,14.2461538 25.012987,14.0477816 25.012987,13.8030769 C25.012987,13.5583723 25.2130053,13.36 25.4597403,13.36 Z M31.1,12.9723077 C31.346735,12.9723077 31.5467532,13.17068 31.5467532,13.4153846 C31.5467532,13.6600892 31.346735,13.8584615 31.1,13.8584615 C30.853265,13.8584615 30.6532468,13.6600892 30.6532468,13.4153846 C30.6532468,13.17068 30.853265,12.9723077 31.1,12.9723077 Z M37.4662338,13.0830769 C37.5779221,13.0830769 37.6896104,13.1938462 37.6896104,13.3046154 C37.6896104,13.4153846 37.5779221,13.5261538 37.4662338,13.5261538 C37.3545455,13.5261538 37.2428571,13.4707692 37.2428571,13.3046154 C37.2428571,13.1938462 37.3545455,13.0830769 37.4662338,13.0830769 Z M20.2662338,12.3076923 C20.5129688,12.3076923 20.712987,12.5060646 20.712987,12.7507692 C20.712987,12.9954739 20.5129688,13.1938462 20.2662338,13.1938462 C20.0194988,13.1938462 19.8194805,12.9954739 19.8194805,12.7507692 C19.8194805,12.5060646 20.0194988,12.3076923 20.2662338,12.3076923 Z M29.0337662,8.48615385 C29.5363636,9.48307692 30.2623377,10.5353846 31.3792208,11.4215385 C32.6077922,12.3630769 33.8363636,12.9169231 34.8974026,13.1384615 C33.7805195,13.0830769 32.3285714,12.5292308 30.9324675,11.5876923 C29.8155844,10.7569231 28.9220779,9.76 28.4753247,8.81846154 C28.3636364,8.65230769 28.4194805,8.43076923 28.587013,8.37538462 C28.7545455,8.26461538 28.9779221,8.32 29.0337662,8.48615385 Z M38.1922078,12.2523077 C38.3038961,12.2523077 38.4155844,12.3630769 38.4155844,12.4738462 C38.4155844,12.5846154 38.3038961,12.6953846 38.1922078,12.6953846 C38.0805195,12.7507692 37.9688312,12.64 37.9688312,12.5292308 C37.9688312,12.4184615 38.0805195,12.3076923 38.1922078,12.2523077 Z M28.9779221,11.3107692 C29.2246571,11.3107692 29.4246753,11.5091415 29.4246753,11.7538462 C29.4246753,11.9985508 29.2246571,12.1969231 28.9779221,12.1969231 C28.7311871,12.1969231 28.5311688,11.9985508 28.5311688,11.7538462 C28.5311688,11.5091415 28.7311871,11.3107692 28.9779221,11.3107692 Z M24.1753247,11.2 C24.4220597,11.2 24.6220779,11.3983723 24.6220779,11.6430769 C24.6220779,11.8877816 24.4220597,12.0861538 24.1753247,12.0861538 C23.9285897,12.0861538 23.7285714,11.8877816 23.7285714,11.6430769 C23.7285714,11.3983723 23.9285897,11.2 24.1753247,11.2 Z M35.1766234,11.1446154 C35.4233584,11.1446154 35.6233766,11.3429877 35.6233766,11.5876923 C35.6233766,11.8323969 35.4233584,12.0307692 35.1766234,12.0307692 C34.9298884,12.0307692 34.7298701,11.8323969 34.7298701,11.5876923 C34.7298701,11.3429877 34.9298884,11.1446154 35.1766234,11.1446154 Z M38.8623377,11.4215385 C38.974026,11.4215385 39.0857143,11.5323077 39.1415584,11.6430769 C39.1415584,11.7538462 39.0298701,11.8646154 38.9181818,11.92 C38.7506494,11.92 38.638961,11.8092308 38.638961,11.6984615 C38.638961,11.5876923 38.7506494,11.4769231 38.8623377,11.4215385 Z M37.1311688,10.8123077 C37.347062,10.8123077 37.5220779,10.9858835 37.5220779,11.2 C37.5220779,11.4141165 37.347062,11.5876923 37.1311688,11.5876923 C36.9152757,11.5876923 36.7402597,11.4141165 36.7402597,11.2 C36.7402597,10.9858835 36.9152757,10.8123077 37.1311688,10.8123077 Z M33.0545455,10.4246154 C33.3012805,10.4246154 33.5012987,10.6229877 33.5012987,10.8676923 C33.5012987,11.1123969 33.3012805,11.3107692 33.0545455,11.3107692 C32.8078104,11.3107692 32.6077922,11.1123969 32.6077922,10.8676923 C32.6077922,10.6229877 32.8078104,10.4246154 33.0545455,10.4246154 Z M39.4766234,10.6461538 C39.5883117,10.6461538 39.7,10.7569231 39.7,10.8676923 C39.7,10.9784615 39.5883117,11.0892308 39.4766234,11.1446154 C39.3649351,11.0892308 39.2532468,10.9784615 39.2532468,10.8676923 C39.2532468,10.7569231 39.3649351,10.6461538 39.4766234,10.6461538 Z M38.5831169,9.59384615 C38.79901,9.59384615 38.974026,9.76742191 38.974026,9.98153846 C38.974026,10.195655 38.79901,10.3692308 38.5831169,10.3692308 C38.3672238,10.3692308 38.1922078,10.195655 38.1922078,9.98153846 C38.1922078,9.76742191 38.3672238,9.59384615 38.5831169,9.59384615 Z M40.0909091,9.76 C40.2025974,9.76 40.3142857,9.87076923 40.3142857,9.98153846 C40.3142857,10.0923077 40.2025974,10.2030769 40.0909091,10.2584615 C39.9792208,10.2584615 39.8675325,10.1476923 39.8675325,9.98153846 C39.8675325,9.87076923 39.9792208,9.76 40.0909091,9.76 Z M27.525974,9.31692308 C27.772709,9.31692308 27.9727273,9.51529537 27.9727273,9.76 C27.9727273,10.0047046 27.772709,10.2030769 27.525974,10.2030769 C27.279239,10.2030769 27.0792208,10.0047046 27.0792208,9.76 C27.0792208,9.51529537 27.279239,9.31692308 27.525974,9.31692308 Z M38.4155844,7.65538462 C38.4155844,8.04307692 37.912987,10.0369231 35.6233766,10.0923077 C34.7298701,10.0923077 34.0597403,9.92615385 33.612987,9.59384615 C33.4454545,9.48307692 33.3896104,9.31692308 33.4454545,9.15076923 C33.5571429,8.98461538 33.7805195,8.92923077 33.9480519,8.98461538 C34.3948052,9.26153846 35.0649351,9.53846154 35.9025974,9.59384615 C37.7454545,9.64923077 38.3597403,8.20923077 38.4155844,7.65538462 Z M31.4909091,9.09538462 C31.7376441,9.09538462 31.9376623,9.29375691 31.9376623,9.53846154 C31.9376623,9.78316617 31.7376441,9.98153846 31.4909091,9.98153846 C31.2441741,9.98153846 31.0441558,9.78316617 31.0441558,9.53846154 C31.0441558,9.29375691 31.2441741,9.09538462 31.4909091,9.09538462 Z M40.4818182,9.04 C40.5935065,9.04 40.7051948,9.15076923 40.7051948,9.26153846 C40.7051948,9.37230769 40.5935065,9.48307692 40.4818182,9.53846154 C40.425974,9.48307692 40.3142857,9.37230769 40.2584416,9.26153846 C40.2584416,9.15076923 40.3701299,9.04 40.4818182,9.04 Z M36.2376623,5.66153846 C37.3545455,5.88307692 38.0805195,6.76923077 37.912987,7.65538462 C37.7454545,8.54153846 36.7402597,9.15076923 35.6233766,8.92923077 C34.5623377,8.70769231 33.7805195,7.82153846 33.9480519,6.93538462 C34.1155844,6.04923077 35.1207792,5.44 36.2376623,5.66153846 Z M39.2532468,8.26461538 C39.4074561,8.26461538 39.5324675,8.38859807 39.5324675,8.54153846 C39.5324675,8.69447885 39.4074561,8.81846154 39.2532468,8.81846154 C39.0990374,8.81846154 38.974026,8.69447885 38.974026,8.54153846 C38.974026,8.38859807 39.0990374,8.26461538 39.2532468,8.26461538 Z M34.7857143,7.04615385 C34.6181818,7.71076923 35.1766234,8.32 35.9584416,8.48615385 C36.5843802,8.6191798 37.1745232,8.39719531 37.4422842,7.96231445 C37.276476,8.07424142 37.0449533,8.12931174 36.7961039,8.09846154 C36.3493506,8.04307692 36.0701299,7.65538462 36.125974,7.32307692 C36.1818182,6.99076923 36.5727273,6.76923077 37.0194805,6.82461538 C37.2726407,6.856 37.4720043,6.99409231 37.5870867,7.16834667 C37.4852878,6.68570692 37.0126717,6.28910243 36.4051948,6.16 C35.6233766,5.99384615 34.8974026,6.38153846 34.7857143,7.04615385 Z M30.5974026,7.43384615 C30.8441376,7.43384615 31.0441558,7.63221845 31.0441558,7.87692308 C31.0441558,8.1216277 30.8441376,8.32 30.5974026,8.32 C30.3506676,8.32 30.1506494,8.1216277 30.1506494,7.87692308 C30.1506494,7.63221845 30.3506676,7.43384615 30.5974026,7.43384615 Z M32.4402597,7.43384615 C32.6869947,7.43384615 32.887013,7.63221845 32.887013,7.87692308 C32.887013,8.1216277 32.6869947,8.32 32.4402597,8.32 C32.1935247,8.32 31.9935065,8.1216277 31.9935065,7.87692308 C31.9935065,7.63221845 32.1935247,7.43384615 32.4402597,7.43384615 Z M39.1974026,7.10153846 C39.3090909,7.10153846 39.4207792,7.21230769 39.4207792,7.32307692 C39.4207792,7.43384615 39.3090909,7.54461538 39.1974026,7.54461538 C39.0298701,7.54461538 38.974026,7.43384615 38.974026,7.32307692 C38.974026,7.21230769 39.0857143,7.10153846 39.1974026,7.10153846 Z M30.7649351,5.88307692 C30.9883117,5.88307692 31.1558442,6.04923077 31.1558442,6.27076923 C31.1558442,6.49230769 30.9883117,6.65846154 30.7649351,6.65846154 C30.5415584,6.60307692 30.374026,6.43692308 30.374026,6.27076923 C30.374026,6.04923077 30.5415584,5.88307692 30.7649351,5.88307692 Z M35.0649351,4.49846154 C36.5168831,4.55384615 37.8012987,5.44 38.3597403,6.65846154 C37.8012987,5.71692308 36.7961039,5.05230769 35.6233766,5.05230769 C34.5623377,5.05230769 33.612987,5.60615385 33.0545455,6.38153846 C32.887013,6.60307692 32.5519481,6.60307692 32.3285714,6.43692308 C32.1051948,6.27076923 32.1051948,5.93846154 32.2727273,5.71692308 C32.9428571,4.99692308 33.9480519,4.49846154 35.0649351,4.49846154 Z M31.7142857,4.66461538 C31.8818182,4.66461538 31.9935065,4.77538462 31.9935065,4.94153846 C31.9935065,5.10769231 31.8818182,5.21846154 31.7142857,5.21846154 C31.6025974,5.21846154 31.4350649,5.05230769 31.4350649,4.94153846 C31.4350649,4.77538462 31.5467532,4.66461538 31.7142857,4.66461538 Z M33.1103896,4.05538462 C33.2220779,4.05538462 33.3337662,4.16615385 33.3337662,4.27692308 C33.3337662,4.38769231 33.2220779,4.49846154 33.1103896,4.49846154 C32.9987013,4.55384615 32.887013,4.44307692 32.887013,4.27692308 C32.887013,4.16615385 32.9987013,4.05538462 33.1103896,4.05538462 Z" id="Combined-fill" fill="#FFFFFF" fill-rule="nonzero" mask="url(#mask-2)"></path>
        </g>
    </g>
</svg>