<svg style="pointer-events: none; display: block; width: 100%; height: 100%;" width="48px" height="48px" viewBox="0 0 48 48" version="1.1" xmlns="http://www.w3.org/2000/svg" xmlns:xlink="http://www.w3.org/1999/xlink">
        <g id="icons-48-social-youtube-" stroke="none" stroke-width="1" fill="none" fill-rule="evenodd">
        <rect id="shape" x="0" y="0" width="48" height="48"></rect>
        <path d="M19.4393877,30.4071429 L19.4393877,17.155102 L31.0916327,23.785102 L19.4393877,30.4071429 Z M45.3544898,12.9844898 C44.8517202,11.0463912 43.3476418,9.52712002 41.4146939,9.00489793 C37.9365306,8.08163262 24,8.08163262 24,8.08163262 C24,8.08163262 10.0634694,8.08163262 6.58530609,9.0208163 C4.65235821,9.54303839 3.14827976,11.0623096 2.64551016,13.0004081 C1.71428567,16.4865306 1.71428567,23.785102 1.71428567,23.785102 C1.71428567,23.785102 1.71428567,31.0836735 2.64551016,34.5777551 C3.15530817,36.5260336 4.67682355,38.047549 6.62510201,38.557347 C10.0634694,39.4806123 24,39.4806123 24,39.4806123 C24,39.4806123 37.9365306,39.4806123 41.4146939,38.5493878 C43.3476418,38.0271657 44.8517202,36.5078945 45.3544898,34.5697959 C46.2857143,31.0836735 46.2857143,23.785102 46.2857143,23.785102 C46.2857143,23.785102 46.2857143,16.4865306 45.3544898,12.9844898 Z" id="social-:-youtube-" fill="currentColor" fill-rule="nonzero"></path>
    </g>
</svg>